<?xml version="1.0" standalone="no"?>
<!DOCTYPE svg PUBLIC "-//W3C//DTD SVG 20010904//EN"
 "http://www.w3.org/TR/2001/REC-SVG-20010904/DTD/svg10.dtd">
<svg version="1.0" xmlns="http://www.w3.org/2000/svg"
 width="728.000000pt" height="728.000000pt" viewBox="0 0 728.000000 728.000000"
 preserveAspectRatio="xMidYMid meet">
<metadata>
Created by potrace 1.14, written by Peter Selinger 2001-2017
</metadata>
<g transform="translate(0.000000,728.000000) scale(0.100000,-0.100000)"
fill="#000000" stroke="none">
<path d="M2819 7276 c-2 -2 -22 -7 -44 -10 -53 -8 -65 -11 -97 -24 -16 -7 -40
-17 -54 -22 -14 -6 -51 -27 -83 -47 -78 -52 -2007 -1981 -2053 -2054 -68 -107
-96 -204 -96 -332 0 -119 30 -221 96 -327 43 -69 1972 -1996 2053 -2052 31
-21 62 -38 68 -38 12 0 9 -24 -9 -65 -8 -18 -70 -215 -76 -240 -1 -5 -9 -30
-17 -55 -8 -25 -45 -139 -82 -255 -37 -115 -77 -239 -88 -275 -12 -36 -22 -67
-22 -70 -1 -6 -75 -238 -121 -379 -19 -58 -34 -108 -34 -112 0 -4 -4 -18 -9
-31 -5 -13 -9 -25 -9 -28 0 -3 -6 -18 -12 -35 -41 -106 -52 -261 -24 -355 8
-25 14 -46 14 -47 7 -33 50 -123 67 -141 7 -7 13 -18 13 -23 0 -15 140 -149
155 -149 7 0 15 -3 17 -7 3 -9 92 -55 111 -60 7 -1 36 -9 65 -17 104 -29 274
-15 366 30 16 8 33 14 38 14 10 0 95 56 116 77 7 7 21 18 30 25 10 7 33 33 52
58 19 25 37 47 40 50 16 16 110 250 110 277 1 3 3 9 21 68 7 22 14 42 14 45 1
3 4 12 7 20 4 8 13 38 21 65 8 28 39 124 68 215 29 91 53 167 54 170 0 3 6 21
12 40 35 107 137 426 139 435 1 6 17 55 35 110 18 55 32 103 31 108 -1 4 3 7
9 7 5 0 8 4 5 8 -3 5 14 69 38 143 24 74 74 229 111 344 36 116 79 249 95 297
16 48 31 97 34 110 2 13 15 52 28 88 14 36 25 70 26 75 1 6 8 30 16 55 8 25
45 140 81 255 36 116 69 217 72 225 3 8 7 20 9 27 1 7 12 42 24 78 l22 66 559
-559 c307 -308 559 -562 559 -566 0 -3 -327 -333 -728 -733 -400 -401 -741
-746 -759 -768 -49 -63 -91 -159 -111 -250 -8 -39 -8 -179 0 -230 11 -70 60
-188 98 -239 86 -114 241 -225 340 -243 14 -2 43 -8 65 -13 60 -13 212 -5 275
16 30 10 57 18 60 19 91 28 163 95 1128 1059 535 534 993 998 1017 1031 75
104 105 196 110 337 4 151 -45 296 -138 403 -104 119 -1968 1970 -2014 1999
l-51 32 13 39 c48 146 149 462 151 471 2 12 28 92 130 409 32 99 59 185 60
190 2 10 43 138 131 410 41 127 45 150 47 245 0 61 -5 126 -13 155 -51 190
-203 357 -382 420 -65 23 -87 27 -187 30 -109 4 -201 -17 -297 -68 -64 -34
-215 -175 -215 -201 0 -9 -4 -16 -9 -16 -12 0 -58 -108 -76 -180 -2 -8 -15
-48 -29 -87 -14 -40 -23 -73 -20 -73 2 0 -2 -13 -11 -30 -9 -16 -13 -30 -11
-30 2 0 -6 -27 -19 -60 -13 -33 -22 -60 -19 -60 2 0 -3 -17 -11 -37 -12 -32
-96 -293 -101 -315 -1 -5 -3 -10 -4 -13 -1 -3 -3 -8 -4 -12 -5 -20 -52 -166
-77 -241 -16 -45 -28 -84 -28 -87 0 -3 -14 -48 -31 -101 -18 -52 -33 -100 -34
-107 -2 -7 -6 -19 -9 -27 -3 -8 -35 -107 -70 -220 -78 -244 -80 -252 -83 -265
-1 -5 -27 -84 -57 -175 -29 -91 -62 -192 -72 -225 -10 -33 -38 -121 -62 -195
-24 -74 -46 -142 -48 -150 -2 -8 -13 -42 -23 -75 -33 -100 -125 -389 -128
-400 -1 -5 -14 -48 -29 -94 l-27 -83 -569 568 c-313 313 -568 572 -567 576 2
4 337 342 746 751 408 408 742 746 742 749 0 4 13 26 28 50 28 42 60 113 68
153 19 85 22 120 19 195 -5 94 -8 116 -18 126 -4 4 -7 15 -7 25 0 9 -18 52
-40 96 -42 85 -131 186 -210 239 -45 31 -136 71 -178 79 -12 2 -26 7 -32 10
-10 6 -185 16 -191 11z"/>
</g>
</svg>
